<?xml version="1.0" standalone="no"?><!DOCTYPE svg PUBLIC "-//W3C//DTD SVG 1.1//EN" "http://www.w3.org/Graphics/SVG/1.1/DTD/svg11.dtd"><svg t="1678113522501" class="icon" viewBox="0 0 1024 1024" version="1.1" xmlns="http://www.w3.org/2000/svg" p-id="4859" xmlns:xlink="http://www.w3.org/1999/xlink" width="200" height="200"><path d="M0 0h1024v1024H0V0z" fill="#202425" opacity=".01" p-id="4860"></path><path d="M68.266667 512a34.133333 34.133333 0 0 1 34.133333-34.133333h819.2a34.133333 34.133333 0 0 1 34.133333 34.133333v409.6a34.133333 34.133333 0 0 1-34.133333 34.133333H102.4a34.133333 34.133333 0 0 1-34.133333-34.133333V512z" fill="#11AA66" p-id="4861"></path><path d="M375.466667 716.8a34.133333 34.133333 0 0 1 34.133333-34.133333h204.8a34.133333 34.133333 0 0 1 34.133333 34.133333v238.933333h-273.066666v-238.933333z" fill="#FFFFFF" p-id="4862"></path><path d="M955.733333 512a443.733333 443.733333 0 0 0-887.466666 0h887.466666z" fill="#FFAA44" p-id="4863"></path></svg>